# xmcd
# Track frame offsets:
# 150
# 13881
# 38977
# 61573
# 82998
# 102741
# 129250
# 153657
# 174901
# 199083
# 225223
# 240959
# 254730
#
# Disc length: 3739 seconds
# Revision: 0
# Processed by: cddbd v1.5.2PL0 Copyright (c) Steve Scherf et al.
# Submitted via: VisiTrax 2.11.1.266 - For more info visit www.synapsa.com
#
DISCID=9c0e990d
DTITLE=Blues Excuse. The - terre rouge
DYEAR=2008
DGENRE=Blues
TTITLE0=Too Damn Busy
TTITLE1=Little Bit of This
TTITLE2=Wíshin'
TTITLE3=Aint a Bad Thing
TTITLE4=Blues and Movin' Woman
TTITLE5=Wobbly Jim
TTITLE6=Sweet Bit O' Lemon
TTITLE7=Green Ginger
TTITLE8=Reputation
TTITLE9=Bad Earth
TTITLE10=Footprints
TTITLE11=She Treats Me Mean
TTITLE12=Taa Blues
EXTD=
EXTT0=
EXTT1=
EXTT2=
EXTT3=
EXTT4=
EXTT5=
EXTT6=
EXTT7=
EXTT8=
EXTT9=
EXTT10=
EXTT11=
EXTT12=
PLAYORDER=
